<svg height="547" width="879" viewBox="-283 165 879 547" style="background-color:transparent;" preserveAspectRatio="xMinYMin meet" xmlns:xlink="http://www.w3.org/1999/xlink" xmlns="http://www.w3.org/2000/svg"><g transform="matrix(1,0,0,1,-189,87)"><rect style="fill: #ccccff;fill-opacity: 0;stroke-opacity:1;stroke-width: 3;stroke:#333333;" rx="9" height="53" width="127" y="433" x="198"/><text style="font-weight:bold; font-size: 18px; text-anchor: middle; font-family: arial,helvetica; fill: #333333;" y="466" x="261">Sketching</text></g><g transform="matrix(1,0,0,1,-227,123)"><rect style="fill: #ff6600;fill-opacity: 0.85;stroke-opacity:1;stroke-width: 2;stroke:rgb(229,91,0);" rx="9" height="38" width="69" y="327" x="-41"/><text style="font-weight:bold; font-size: 12px; text-anchor: middle; font-family: arial,helvetica; fill: #ffffff;" y="351" x="-7">Images</text></g><g><path style="fill:none;stroke:#333333;stroke-width:1;" d="M 7 546C-95 546-95 469-197 469"/><text style="font-weight:Normal; font-size: 12px; text-anchor: middle; font-family: arial,helvetica; fill: #333333;" y="488" x="-187"/><text style="font-weight:Normal; font-size: 12px; text-anchor: start; font-family: arial,helvetica; fill: #333333;" y="507" x="-95"/><text style="font-weight:Normal; font-size: 12px; text-anchor: middle; font-family: arial,helvetica; fill: #333333;" y="556" x="-12"/></g><g><rect style="fill: #0033ff;fill-opacity: 0.85;stroke-opacity:1;stroke-width: 2;stroke:rgb(0,45,229);" rx="9" height="38" width="81" y="378" x="500"/><text style="font-weight:bold; font-size: 12px; text-anchor: middle; font-family: arial,helvetica; fill: #ffffff;" y="402" x="540">Diagrams</text></g><g><path style="fill:none;stroke:#333333;stroke-width:1;" d="M 138 546C 318 546 318 397 498 397"/><text style="font-weight:Normal; font-size: 12px; text-anchor: middle; font-family: arial,helvetica; fill: #333333;" y="390" x="478"/><text style="font-weight:Normal; font-size: 12px; text-anchor: start; font-family: arial,helvetica; fill: #333333;" y="471" x="318"/><text style="font-weight:Normal; font-size: 12px; text-anchor: middle; font-family: arial,helvetica; fill: #333333;" y="527" x="144"/></g><g><rect style="fill: #99ff00;fill-opacity: 0.85;stroke-opacity:1;stroke-width: 2;stroke:rgb(137,229,0);" rx="9" height="38" width="81" y="659" x="165"/><text style="font-weight:bold; font-size: 12px; text-anchor: middle; font-family: arial,helvetica; fill: #333333;" y="683" x="205">Freehand</text></g><g><path style="fill:none;stroke:#333333;stroke-width:1;" d="M 138 546C 171.5 546 205 601.5 205 657"/><polyline style="fill:#ffffff;stroke:#333333;stroke-width:1;fill-opacity:0;" points="198,646 205,657 210,646"/><text style="font-weight:Normal; font-size: 12px; text-anchor: middle; font-family: arial,helvetica; fill: #333333;" y="636" x="208"/><text style="font-weight:Normal; font-size: 12px; text-anchor: start; font-family: arial,helvetica; fill: #333333;" y="580" x="184"/><text style="font-weight:Normal; font-size: 12px; text-anchor: middle; font-family: arial,helvetica; fill: #333333;" y="549" x="157"/></g><g><rect style="fill: #ffffff;fill-opacity: 1;stroke-opacity:0;stroke-width: 1;stroke:%stroke%;" rx="4" height="47" width="71" y="558" x="151"/><text style="font-weight:Normal; font-size: 12px; text-anchor: start; font-family: arial,helvetica; fill: #333333;" y="558" x="151"><tspan alignment-baseline="before-edge" x="151">Double click</tspan><tspan alignment-baseline="before-edge" dy="17" x="151">connection to</tspan><tspan alignment-baseline="before-edge" dy="17" x="151">add line text</tspan></text></g><g><path style="fill:none;stroke:#333333;stroke-width:1;stroke-dasharray:4,3;" d="M 72 518C 72 371 103 224 134 224"/><text style="font-weight:Normal; font-size: 12px; text-anchor: middle; font-family: arial,helvetica; fill: #333333;" y="236" x="116"/><text style="font-weight:Normal; font-size: 12px; text-anchor: start; font-family: arial,helvetica; fill: #333333;" y="315" x="91"/><text style="font-weight:Normal; font-size: 12px; text-anchor: middle; font-family: arial,helvetica; fill: #333333;" y="501" x="59"/></g><g><rect style="fill: #ccccff;fill-opacity: 0;stroke-opacity:1;stroke-width: 2;stroke:#333333;" rx="0" height="98" width="328" y="175" x="136"/><path style="fill:rgb(226,86,86);stroke:rgb(226,86,86);stroke-width:1;" d="M285,168 313,166 315,181 283,182  z"/><text style="font-weight:Normal; font-size: 12px; text-anchor: start; font-family: arial,helvetica; fill: #333333;" y="201" x="149"><tspan x="149" font-weight="bold" font-size="24" dy="14">Welcome to Sketchboard!</tspan><tspan dy="23" dx="7" x="149">&#x2022;&#x00A0;&#x00A0;&#x00A0;&#x00A0;Sketch together with teammates</tspan><tspan dy="20" dx="7" x="149">&#x2022;&#x00A0;&#x00A0;&#x00A0;&#x00A0;Combine diagrams, freehand and images</tspan></text></g></svg>