<svg height="461" width="794" viewBox="-99 -112 794 461" style="background-color:transparent;" preserveAspectRatio="xMinYMin meet" xmlns:xlink="http://www.w3.org/1999/xlink" xmlns="http://www.w3.org/2000/svg"><g transform="matrix(1,0,0,1,-249,-178)"><g transform="matrix(1,0,0,1,329,160)"><path style="fill:none;stroke:#333333;stroke-width:3.0;" d="m 0.0259 8.5688l 0.6175 37.8610l 13.5910 8.5493l-0.6179-36.6400"/><path style="fill:none;stroke:#333333;stroke-width:3.0;" d="m 31.5318 0.0195c 0 0-29.6531 5.4958-30.2705 7.3282c-0.6179 1.8320 12.3552 10.9921 12.3552 10.9921l 33.3587-10.3812l-15.4434-7.9390z"/><path style="fill:none;stroke:#333333;stroke-width:3.0;" d="m 46.9752 7.9580l-0.6175 37.8610l-32.1234 9.1602l-0.6780-36.6400"/><path style="fill:none;stroke:#333333;stroke-width:3.0;" d="m 4.9677 22.6137l 4.3244 3.0534"/></g><text style="font-weight:bold; font-size: 12px; text-anchor: middle; font-family: arial,helvetica; fill: #333333;" y="230" x="352">B1</text></g><g transform="matrix(1,0,0,1,-59,-173)"><g transform="matrix(1,0,0,1,437,161)"><path style="fill:none;stroke:#333333;stroke-width:3.0;" d="m 0.0259 8.5688l 0.6175 37.8610l 13.5910 8.5493l-0.6179-36.6400"/><path style="fill:none;stroke:#333333;stroke-width:3.0;" d="m 31.5318 0.0195c 0 0-29.6531 5.4958-30.2705 7.3282c-0.6179 1.8320 12.3552 10.9921 12.3552 10.9921l 33.3587-10.3812l-15.4434-7.9390z"/><path style="fill:none;stroke:#333333;stroke-width:3.0;" d="m 46.9752 7.9580l-0.6175 37.8610l-32.1234 9.1602l-0.6780-36.6400"/><path style="fill:none;stroke:#333333;stroke-width:3.0;" d="m 4.9677 22.6137l 4.3244 3.0534"/></g><text style="font-weight:bold; font-size: 12px; text-anchor: middle; font-family: arial,helvetica; fill: #333333;" y="231" x="460">B2</text></g><g transform="matrix(1,0,0,1,-4,-172)"><g transform="matrix(1,0,0,1,549,161)"><path style="fill:none;stroke:#333333;stroke-width:3.0;" d="m 0.0259 8.5688l 0.6175 37.8610l 13.5910 8.5493l-0.6179-36.6400"/><path style="fill:none;stroke:#333333;stroke-width:3.0;" d="m 31.5318 0.0195c 0 0-29.6531 5.4958-30.2705 7.3282c-0.6179 1.8320 12.3552 10.9921 12.3552 10.9921l 33.3587-10.3812l-15.4434-7.9390z"/><path style="fill:none;stroke:#333333;stroke-width:3.0;" d="m 46.9752 7.9580l-0.6175 37.8610l-32.1234 9.1602l-0.6780-36.6400"/><path style="fill:none;stroke:#333333;stroke-width:3.0;" d="m 4.9677 22.6137l 4.3244 3.0534"/></g><text style="font-weight:bold; font-size: 12px; text-anchor: middle; font-family: arial,helvetica; fill: #333333;" y="231" x="572">B3</text></g><g transform="matrix(1,0,0,1,-335,-43)"><g transform="matrix(1,0,0,1,417,281)"><path style="fill:none;stroke:#333333;stroke-width:3.0;" d="m 0.0259 8.5688l 0.6175 37.8610l 13.5910 8.5493l-0.6179-36.6400"/><path style="fill:none;stroke:#333333;stroke-width:3.0;" d="m 31.5318 0.0195c 0 0-29.6531 5.4958-30.2705 7.3282c-0.6179 1.8320 12.3552 10.9921 12.3552 10.9921l 33.3587-10.3812l-15.4434-7.9390z"/><path style="fill:none;stroke:#333333;stroke-width:3.0;" d="m 46.9752 7.9580l-0.6175 37.8610l-32.1234 9.1602l-0.6780-36.6400"/><path style="fill:none;stroke:#333333;stroke-width:3.0;" d="m 4.9677 22.6137l 4.3244 3.0534"/></g><text style="font-weight:bold; font-size: 12px; text-anchor: middle; font-family: arial,helvetica; fill: #333333;" y="351" x="440">C1</text></g><g transform="matrix(1,0,0,1,-145,-38)"><g transform="matrix(1,0,0,1,525,282)"><path style="fill:none;stroke:#333333;stroke-width:3.0;" d="m 0.0259 8.5688l 0.6175 37.8610l 13.5910 8.5493l-0.6179-36.6400"/><path style="fill:none;stroke:#333333;stroke-width:3.0;" d="m 31.5318 0.0195c 0 0-29.6531 5.4958-30.2705 7.3282c-0.6179 1.8320 12.3552 10.9921 12.3552 10.9921l 33.3587-10.3812l-15.4434-7.9390z"/><path style="fill:none;stroke:#333333;stroke-width:3.0;" d="m 46.9752 7.9580l-0.6175 37.8610l-32.1234 9.1602l-0.6780-36.6400"/><path style="fill:none;stroke:#333333;stroke-width:3.0;" d="m 4.9677 22.6137l 4.3244 3.0534"/></g><text style="font-weight:bold; font-size: 12px; text-anchor: middle; font-family: arial,helvetica; fill: #333333;" y="352" x="548">C2</text></g><g transform="matrix(1,0,0,1,-90,-37)"><g transform="matrix(1,0,0,1,637,282)"><path style="fill:none;stroke:#333333;stroke-width:3.0;" d="m 0.0259 8.5688l 0.6175 37.8610l 13.5910 8.5493l-0.6179-36.6400"/><path style="fill:none;stroke:#333333;stroke-width:3.0;" d="m 31.5318 0.0195c 0 0-29.6531 5.4958-30.2705 7.3282c-0.6179 1.8320 12.3552 10.9921 12.3552 10.9921l 33.3587-10.3812l-15.4434-7.9390z"/><path style="fill:none;stroke:#333333;stroke-width:3.0;" d="m 46.9752 7.9580l-0.6175 37.8610l-32.1234 9.1602l-0.6780-36.6400"/><path style="fill:none;stroke:#333333;stroke-width:3.0;" d="m 4.9677 22.6137l 4.3244 3.0534"/></g><text style="font-weight:bold; font-size: 12px; text-anchor: middle; font-family: arial,helvetica; fill: #333333;" y="352" x="660">C3</text></g><g transform="matrix(1,0,0,1,-117,35)"><g transform="matrix(1,0,0,1,203,72)"><path style="fill:none;stroke:#333333;stroke-width:3.0;" d="m 0.0259 8.5688l 0.6175 37.8610l 13.5910 8.5493l-0.6179-36.6400"/><path style="fill:none;stroke:#333333;stroke-width:3.0;" d="m 31.5318 0.0195c 0 0-29.6531 5.4958-30.2705 7.3282c-0.6179 1.8320 12.3552 10.9921 12.3552 10.9921l 33.3587-10.3812l-15.4434-7.9390z"/><path style="fill:none;stroke:#333333;stroke-width:3.0;" d="m 46.9752 7.9580l-0.6175 37.8610l-32.1234 9.1602l-0.6780-36.6400"/><path style="fill:none;stroke:#333333;stroke-width:3.0;" d="m 4.9677 22.6137l 4.3244 3.0534"/></g><text style="font-weight:bold; font-size: 12px; text-anchor: middle; font-family: arial,helvetica; fill: #333333;" y="142" x="226">F1</text></g><g><path style="fill:none;stroke:#333333;stroke-width:2;stroke-dasharray:4,3;" d="M 427 29C 507 70 412 70 412 111"/><text style="font-weight:Normal; font-size: 12px; text-anchor: middle; font-family: arial,helvetica; fill: #333333;" y="97" x="428"/><text style="font-weight:Normal; font-size: 12px; text-anchor: start; font-family: arial,helvetica; fill: #333333;" y="70" x="449"/><text style="font-weight:Normal; font-size: 12px; text-anchor: middle; font-family: arial,helvetica; fill: #333333;" y="44" x="439"/></g><g transform="matrix(1,0,0,1,176,-29)"><g transform="matrix(1,0,0,1,208,142)"><path style="fill:none;stroke:#333333;stroke-width:3.0;" d="m 0.0259 8.5688l 0.6175 37.8610l 13.5910 8.5493l-0.6179-36.6400"/><path style="fill:none;stroke:#333333;stroke-width:3.0;" d="m 31.5318 0.0195c 0 0-29.6531 5.4958-30.2705 7.3282c-0.6179 1.8320 12.3552 10.9921 12.3552 10.9921l 33.3587-10.3812l-15.4434-7.9390z"/><path style="fill:none;stroke:#333333;stroke-width:3.0;" d="m 46.9752 7.9580l-0.6175 37.8610l-32.1234 9.1602l-0.6780-36.6400"/><path style="fill:none;stroke:#333333;stroke-width:3.0;" d="m 4.9677 22.6137l 4.3244 3.0534"/></g><text style="font-weight:bold; font-size: 12px; text-anchor: middle; font-family: arial,helvetica; fill: #333333;" y="212" x="231">F2</text></g><g transform="matrix(1,0,0,1,-72,-223)"><rect style="fill: #000000;fill-opacity: 0;stroke-opacity:0;stroke-width: 1;stroke:%stroke%;" rx="4" height="34" width="127" y="275" x="-12"/><text style="font-weight:Normal; font-size: 12px; text-anchor: start; font-family: arial,helvetica; fill: #333333;" y="296" x="-12"><tspan x="-12">[ MSG</tspan><tspan>_ID, TO, C1 ]</tspan></text></g><g transform="matrix(1,0,0,1,66,-33)"><rect style="fill: #000000;fill-opacity: 0;stroke-opacity:0;stroke-width: 1;stroke:%stroke%;" rx="4" height="34" width="154" y="63" x="136"/><text style="font-weight:Normal; font-size: 12px; text-anchor: start; font-family: arial,helvetica; fill: #000000;" y="84" x="136"><tspan x="136">[ MSG</tspan><tspan>_ID, TO</tspan><tspan>_C2, C1, F1 ]</tspan></text></g><g transform="matrix(1,0,0,1,-279,6)"><rect style="fill: #000000;fill-opacity: 0;stroke-opacity:0;stroke-width: 1;stroke:%stroke%;" rx="4" height="34" width="118" y="188" x="548"/><text style="font-weight:Normal; font-size: 12px; text-anchor: start; font-family: arial,helvetica; fill: #333333;" y="209" x="548"><tspan x="548">[ MSG</tspan><tspan>_ID, OUT</tspan><tspan>_ID ]</tspan></text></g><g transform="matrix(1,0,0,1,198,-44)"><g transform="matrix(1,0,0,1,353,158)"><path style="fill:none;stroke:#333333;stroke-width:3.0;" d="m 0.0259 8.5688l 0.6175 37.8610l 13.5910 8.5493l-0.6179-36.6400"/><path style="fill:none;stroke:#333333;stroke-width:3.0;" d="m 31.5318 0.0195c 0 0-29.6531 5.4958-30.2705 7.3282c-0.6179 1.8320 12.3552 10.9921 12.3552 10.9921l 33.3587-10.3812l-15.4434-7.9390z"/><path style="fill:none;stroke:#333333;stroke-width:3.0;" d="m 46.9752 7.9580l-0.6175 37.8610l-32.1234 9.1602l-0.6780-36.6400"/><path style="fill:none;stroke:#333333;stroke-width:3.0;" d="m 4.9677 22.6137l 4.3244 3.0534"/></g><text style="font-weight:bold; font-size: 12px; text-anchor: middle; font-family: arial,helvetica; fill: #333333;" y="228" x="376">F3</text></g><g transform="matrix(1,0,0,1,0,0)"><path style="fill:none;stroke:#333333;stroke-width:2;stroke-dasharray:4,3;" d="M 570 243C 570 196 680 196 600 149"/><text style="font-weight:Normal; font-size: 12px; text-anchor: middle; font-family: arial,helvetica; fill: #333333;" y="160" x="581"/><text style="font-weight:Normal; font-size: 12px; text-anchor: start; font-family: arial,helvetica; fill: #333333;" y="196" x="615"/><text style="font-weight:Normal; font-size: 12px; text-anchor: middle; font-family: arial,helvetica; fill: #333333;" y="225" x="559"/></g><g transform="matrix(1,0,0,1,0,0)"><path style="fill:none;stroke:#333333;stroke-width:2;stroke-dasharray:4,3;" d="M 594 16C 665 16 671 141 600 141"/><text style="font-weight:Normal; font-size: 12px; text-anchor: middle; font-family: arial,helvetica; fill: #333333;" y="125" x="613"/><text style="font-weight:Normal; font-size: 12px; text-anchor: start; font-family: arial,helvetica; fill: #333333;" y="78" x="650"/><text style="font-weight:Normal; font-size: 12px; text-anchor: middle; font-family: arial,helvetica; fill: #333333;" y="28" x="608"/></g><g transform="matrix(1,0,0,1,0,0)"><path style="fill:none;stroke:#333333;stroke-width:2;" d="M 80 265C 9 265 11 142 82 142"/><polyline style="fill:#ffffff;stroke:#333333;stroke-width:2;fill-opacity:0;" points="65,153 82,142 63,133"/><text style="font-weight:Normal; font-size: 12px; text-anchor: middle; font-family: arial,helvetica; fill: #333333;" y="157" x="69"/><text style="font-weight:Normal; font-size: 12px; text-anchor: start; font-family: arial,helvetica; fill: #333333;" y="203" x="27"/><text style="font-weight:Normal; font-size: 12px; text-anchor: middle; font-family: arial,helvetica; fill: #333333;" y="251" x="65"/></g><g transform="matrix(1,0,0,1,0,0)"><path style="fill:none;stroke:#333333;stroke-width:2;" d="M 84 134C 13 134 11 9 82 9"/><polyline style="fill:#ffffff;stroke:#333333;stroke-width:2;fill-opacity:0;" points="65,20 82,9 63,0"/><text style="font-weight:Normal; font-size: 12px; text-anchor: middle; font-family: arial,helvetica; fill: #333333;" y="25" x="69"/><text style="font-weight:Normal; font-size: 12px; text-anchor: start; font-family: arial,helvetica; fill: #333333;" y="71" x="29"/><text style="font-weight:Normal; font-size: 12px; text-anchor: middle; font-family: arial,helvetica; fill: #333333;" y="120" x="69"/></g><g><path style="fill:none;stroke:#333333;stroke-width:2;" d="M 129 9C 254.5 9 254.5 137 380 137"/><polyline style="fill:#ffffff;stroke:#333333;stroke-width:2;fill-opacity:0;" points="362,146 380,137 363,126"/><text style="font-weight:Normal; font-size: 12px; text-anchor: middle; font-family: arial,helvetica; fill: #333333;" y="116" x="373"/><text style="font-weight:Normal; font-size: 12px; text-anchor: start; font-family: arial,helvetica; fill: #333333;" y="73" x="254"/><text style="font-weight:Normal; font-size: 12px; text-anchor: middle; font-family: arial,helvetica; fill: #333333;" y="2" x="147"/></g><g transform="matrix(1,0,0,1,0,0)"><path style="fill:none;stroke:#333333;stroke-width:2;" d="M 382 140C 311 140 305 271 376 271"/><polyline style="fill:#ffffff;stroke:#333333;stroke-width:2;fill-opacity:0;" points="357,279 376,271 359,259"/><text style="font-weight:Normal; font-size: 12px; text-anchor: middle; font-family: arial,helvetica; fill: #333333;" y="255" x="392"/><text style="font-weight:Normal; font-size: 12px; text-anchor: start; font-family: arial,helvetica; fill: #333333;" y="205" x="325"/><text style="font-weight:Normal; font-size: 12px; text-anchor: middle; font-family: arial,helvetica; fill: #333333;" y="153" x="396"/></g><g transform="matrix(1,0,0,1,-823,-1)"><rect style="fill: #000000;fill-opacity: 0;stroke-opacity:0;stroke-width: 1;stroke:%stroke%;" rx="4" height="34" width="108" y="195" x="761"/><text style="font-weight:Normal; font-size: 12px; text-anchor: start; font-family: arial,helvetica; fill: #333333;" y="216" x="761"><tspan x="761">[ MSG</tspan><tspan>_ID, TO ]</tspan></text></g><g transform="matrix(1,0,0,1,0,0)"><path style="fill:none;stroke:rgb(229,0,229);stroke-width:2;" d="M 429 271C 500 271 506 140 435 140"/><polyline style="fill:#ffffff;stroke:rgb(229,0,229);stroke-width:2;fill-opacity:0;" points="453,131 435,140 451,151"/><text style="font-weight:Normal; font-size: 12px; text-anchor: middle; font-family: arial,helvetica; fill: #333333;" y="155" x="418"/><text style="font-weight:Normal; font-size: 12px; text-anchor: start; font-family: arial,helvetica; fill: #333333;" y="205" x="485"/><text style="font-weight:Normal; font-size: 12px; text-anchor: middle; font-family: arial,helvetica; fill: #333333;" y="257" x="414"/></g><g><path style="fill:none;stroke:rgb(229,0,229);stroke-width:2;" d="M 407 111C 407 31 103-102 103-22"/><polyline style="fill:#ffffff;stroke:rgb(229,0,229);stroke-width:2;fill-opacity:0;" points="96,-41 103,-22 116,-36"/><text style="font-weight:Normal; font-size: 12px; text-anchor: middle; font-family: arial,helvetica; fill: #333333;" y="0" x="112"/><text style="font-weight:Normal; font-size: 12px; text-anchor: start; font-family: arial,helvetica; fill: #333333;" y="-15" x="255"/><text style="font-weight:Normal; font-size: 12px; text-anchor: middle; font-family: arial,helvetica; fill: #333333;" y="119" x="389"/></g><g transform="matrix(1,0,0,1,-136,-147)"><rect style="fill: #000000;fill-opacity: 0;stroke-opacity:0;stroke-width: 1;stroke:%stroke%;" rx="4" height="34" width="132" y="101" x="379"/><text style="font-weight:Normal; font-size: 12px; text-anchor: start; font-family: arial,helvetica; fill: #333333;" y="122" x="379"><tspan x="379">[ MSG</tspan><tspan>_ID, C1, F1 ]</tspan></text></g><g><path style="fill:none;stroke:rgb(229,0,229);stroke-width:2;" d="M 103 39C 103 86.5 217 86.5 137 134"/><polyline style="fill:#ffffff;stroke:rgb(229,0,229);stroke-width:2;fill-opacity:0;" points="146,116 137,134 156,133"/><text style="font-weight:Normal; font-size: 12px; text-anchor: middle; font-family: arial,helvetica; fill: #333333;" y="114" x="143"/><text style="font-weight:Normal; font-size: 12px; text-anchor: start; font-family: arial,helvetica; fill: #333333;" y="86" x="150"/><text style="font-weight:Normal; font-size: 12px; text-anchor: middle; font-family: arial,helvetica; fill: #333333;" y="47" x="121"/></g><g><path style="fill:none;stroke:rgb(229,0,229);stroke-width:2;" d="M 135 134C 206 134 204 265 133 265"/><polyline style="fill:#ffffff;stroke:rgb(229,0,229);stroke-width:2;fill-opacity:0;" points="149,253 133,265 151,273"/><text style="font-weight:Normal; font-size: 12px; text-anchor: middle; font-family: arial,helvetica; fill: #333333;" y="249" x="145"/><text style="font-weight:Normal; font-size: 12px; text-anchor: start; font-family: arial,helvetica; fill: #333333;" y="199" x="187"/><text style="font-weight:Normal; font-size: 12px; text-anchor: middle; font-family: arial,helvetica; fill: #333333;" y="147" x="149"/></g><g transform="matrix(1,0,0,1,-87,-92)"><rect style="fill: #000000;fill-opacity: 0;stroke-opacity:0;stroke-width: 1;stroke:%stroke%;" rx="4" height="34" width="132" y="159" x="246"/><text style="font-weight:Normal; font-size: 12px; text-anchor: start; font-family: arial,helvetica; fill: #333333;" y="180" x="246"><tspan x="246">[ MSG</tspan><tspan>_ID, C1 ]</tspan></text></g><g transform="matrix(1,0,0,1,0,0)"><rect style="fill: #000000;fill-opacity: 0;stroke-opacity:0;stroke-width: 1;stroke:%stroke%;" rx="4" height="34" width="132" y="164" x="191"/><text style="font-weight:Normal; font-size: 12px; text-anchor: start; font-family: arial,helvetica; fill: #333333;" y="185" x="191"><tspan x="191">[ MSG</tspan><tspan>_ID ]</tspan></text></g><g transform="matrix(1,0,0,1,-23,-125)"><rect style="fill: #000000;fill-opacity: 0;stroke-opacity:0;stroke-width: 1;stroke:%stroke%;" rx="4" height="34" width="118" y="319" x="514"/><text style="font-weight:Normal; font-size: 12px; text-anchor: start; font-family: arial,helvetica; fill: #333333;" y="340" x="514"><tspan x="514">[ OUT</tspan><tspan>_ID ]</tspan></text></g><g transform="matrix(1,0,0,1,-91,-274)"><rect style="fill: #000000;fill-opacity: 0;stroke-opacity:0;stroke-width: 1;stroke:%stroke%;" rx="4" height="34" width="154" y="355" x="530"/><text style="font-weight:Normal; font-size: 12px; text-anchor: start; font-family: arial,helvetica; fill: #000000;" y="376" x="530"><tspan x="530">[ MSG</tspan><tspan>_ID, C1, F1, B1 ]</tspan></text></g><g><path style="fill:none;stroke:rgb(0,229,0);stroke-width:2;stroke-dasharray:4,3;" d="M 522 190C 522 154.5 516 154.5 516 119"/><polyline style="fill:#ffffff;stroke:rgb(0,229,0);stroke-width:2;fill-opacity:0;" points="526,136 516,119 506,136"/><text style="font-weight:Normal; font-size: 12px; text-anchor: middle; font-family: arial,helvetica; fill: #333333;" y="133" x="503"/><text style="font-weight:Normal; font-size: 12px; text-anchor: start; font-family: arial,helvetica; fill: #333333;" y="154" x="519"/><text style="font-weight:Normal; font-size: 12px; text-anchor: middle; font-family: arial,helvetica; fill: #333333;" y="180" x="506"/><polyline style="fill:#ffffff;stroke:rgb(0,229,0);stroke-width:2;fill-opacity:0;" points="531,172 522,190 511,172"/></g></svg>