<svg height="476" width="859" viewBox="-99 -112 859 476" style="background-color:transparent;" preserveAspectRatio="xMinYMin meet" xmlns:xlink="http://www.w3.org/1999/xlink" xmlns="http://www.w3.org/2000/svg"><g><g transform="matrix(1,0,0,1,80,-18)"><path style="fill:none;stroke:#333333;stroke-width:3.0;" d="m 0.0259 8.5688l 0.6175 37.8610l 13.5910 8.5493l-0.6179-36.6400"/><path style="fill:none;stroke:#333333;stroke-width:3.0;" d="m 31.5318 0.0195c 0 0-29.6531 5.4958-30.2705 7.3282c-0.6179 1.8320 12.3552 10.9921 12.3552 10.9921l 33.3587-10.3812l-15.4434-7.9390z"/><path style="fill:none;stroke:#333333;stroke-width:3.0;" d="m 46.9752 7.9580l-0.6175 37.8610l-32.1234 9.1602l-0.6780-36.6400"/><path style="fill:none;stroke:#333333;stroke-width:3.0;" d="m 4.9677 22.6137l 4.3244 3.0534"/></g><text style="font-weight:bold; font-size: 12px; text-anchor: middle; font-family: arial,helvetica; fill: #333333;" y="52" x="103">R1</text></g><g transform="matrix(1,0,0,1,65,0)"><g transform="matrix(1,0,0,1,378,-12)"><path style="fill:none;stroke:#333333;stroke-width:3.0;" d="m 0.0259 8.5688l 0.6175 37.8610l 13.5910 8.5493l-0.6179-36.6400"/><path style="fill:none;stroke:#333333;stroke-width:3.0;" d="m 31.5318 0.0195c 0 0-29.6531 5.4958-30.2705 7.3282c-0.6179 1.8320 12.3552 10.9921 12.3552 10.9921l 33.3587-10.3812l-15.4434-7.9390z"/><path style="fill:none;stroke:#333333;stroke-width:3.0;" d="m 46.9752 7.9580l-0.6175 37.8610l-32.1234 9.1602l-0.6780-36.6400"/><path style="fill:none;stroke:#333333;stroke-width:3.0;" d="m 4.9677 22.6137l 4.3244 3.0534"/></g><text style="font-weight:bold; font-size: 12px; text-anchor: middle; font-family: arial,helvetica; fill: #333333;" y="58" x="401">R2</text></g><g transform="matrix(1,0,0,1,65,0)"><g transform="matrix(1,0,0,1,545,-11)"><path style="fill:none;stroke:#333333;stroke-width:3.0;" d="m 0.0259 8.5688l 0.6175 37.8610l 13.5910 8.5493l-0.6179-36.6400"/><path style="fill:none;stroke:#333333;stroke-width:3.0;" d="m 31.5318 0.0195c 0 0-29.6531 5.4958-30.2705 7.3282c-0.6179 1.8320 12.3552 10.9921 12.3552 10.9921l 33.3587-10.3812l-15.4434-7.9390z"/><path style="fill:none;stroke:#333333;stroke-width:3.0;" d="m 46.9752 7.9580l-0.6175 37.8610l-32.1234 9.1602l-0.6780-36.6400"/><path style="fill:none;stroke:#333333;stroke-width:3.0;" d="m 4.9677 22.6137l 4.3244 3.0534"/></g><text style="font-weight:bold; font-size: 12px; text-anchor: middle; font-family: arial,helvetica; fill: #333333;" y="59" x="568">R3</text></g><g><g transform="matrix(1,0,0,1,82,238)"><path style="fill:none;stroke:#333333;stroke-width:3.0;" d="m 0.0259 8.5688l 0.6175 37.8610l 13.5910 8.5493l-0.6179-36.6400"/><path style="fill:none;stroke:#333333;stroke-width:3.0;" d="m 31.5318 0.0195c 0 0-29.6531 5.4958-30.2705 7.3282c-0.6179 1.8320 12.3552 10.9921 12.3552 10.9921l 33.3587-10.3812l-15.4434-7.9390z"/><path style="fill:none;stroke:#333333;stroke-width:3.0;" d="m 46.9752 7.9580l-0.6175 37.8610l-32.1234 9.1602l-0.6780-36.6400"/><path style="fill:none;stroke:#333333;stroke-width:3.0;" d="m 4.9677 22.6137l 4.3244 3.0534"/></g><text style="font-weight:bold; font-size: 12px; text-anchor: middle; font-family: arial,helvetica; fill: #333333;" y="308" x="105">C1</text></g><g transform="matrix(1,0,0,1,65,0)"><g transform="matrix(1,0,0,1,380,244)"><path style="fill:none;stroke:#333333;stroke-width:3.0;" d="m 0.0259 8.5688l 0.6175 37.8610l 13.5910 8.5493l-0.6179-36.6400"/><path style="fill:none;stroke:#333333;stroke-width:3.0;" d="m 31.5318 0.0195c 0 0-29.6531 5.4958-30.2705 7.3282c-0.6179 1.8320 12.3552 10.9921 12.3552 10.9921l 33.3587-10.3812l-15.4434-7.9390z"/><path style="fill:none;stroke:#333333;stroke-width:3.0;" d="m 46.9752 7.9580l-0.6175 37.8610l-32.1234 9.1602l-0.6780-36.6400"/><path style="fill:none;stroke:#333333;stroke-width:3.0;" d="m 4.9677 22.6137l 4.3244 3.0534"/></g><text style="font-weight:bold; font-size: 12px; text-anchor: middle; font-family: arial,helvetica; fill: #333333;" y="314" x="403">C2</text></g><g transform="matrix(1,0,0,1,65,0)"><g transform="matrix(1,0,0,1,547,245)"><path style="fill:none;stroke:#333333;stroke-width:3.0;" d="m 0.0259 8.5688l 0.6175 37.8610l 13.5910 8.5493l-0.6179-36.6400"/><path style="fill:none;stroke:#333333;stroke-width:3.0;" d="m 31.5318 0.0195c 0 0-29.6531 5.4958-30.2705 7.3282c-0.6179 1.8320 12.3552 10.9921 12.3552 10.9921l 33.3587-10.3812l-15.4434-7.9390z"/><path style="fill:none;stroke:#333333;stroke-width:3.0;" d="m 46.9752 7.9580l-0.6175 37.8610l-32.1234 9.1602l-0.6780-36.6400"/><path style="fill:none;stroke:#333333;stroke-width:3.0;" d="m 4.9677 22.6137l 4.3244 3.0534"/></g><text style="font-weight:bold; font-size: 12px; text-anchor: middle; font-family: arial,helvetica; fill: #333333;" y="315" x="570">C3</text></g><g transform="matrix(1,0,0,1,0,0)"><path style="fill:none;stroke:#333333;stroke-width:2;stroke-dasharray:4,3;" d="M 635 243C 635 196 745 196 665 149"/><text style="font-weight:Normal; font-size: 12px; text-anchor: middle; font-family: arial,helvetica; fill: #333333;" y="160" x="646"/><text style="font-weight:Normal; font-size: 12px; text-anchor: start; font-family: arial,helvetica; fill: #333333;" y="196" x="680"/><text style="font-weight:Normal; font-size: 12px; text-anchor: middle; font-family: arial,helvetica; fill: #333333;" y="225" x="624"/></g><g><g transform="matrix(1,0,0,1,86,107)"><path style="fill:none;stroke:#333333;stroke-width:3.0;" d="m 0.0259 8.5688l 0.6175 37.8610l 13.5910 8.5493l-0.6179-36.6400"/><path style="fill:none;stroke:#333333;stroke-width:3.0;" d="m 31.5318 0.0195c 0 0-29.6531 5.4958-30.2705 7.3282c-0.6179 1.8320 12.3552 10.9921 12.3552 10.9921l 33.3587-10.3812l-15.4434-7.9390z"/><path style="fill:none;stroke:#333333;stroke-width:3.0;" d="m 46.9752 7.9580l-0.6175 37.8610l-32.1234 9.1602l-0.6780-36.6400"/><path style="fill:none;stroke:#333333;stroke-width:3.0;" d="m 4.9677 22.6137l 4.3244 3.0534"/></g><text style="font-weight:bold; font-size: 12px; text-anchor: middle; font-family: arial,helvetica; fill: #333333;" y="177" x="109">G1</text></g><g transform="matrix(1,0,0,1,0,0)"><path style="fill:none;stroke:#333333;stroke-width:2;stroke-dasharray:4,3;" d="M 492 29C 572 70 477 70 477 111"/><text style="font-weight:Normal; font-size: 12px; text-anchor: middle; font-family: arial,helvetica; fill: #333333;" y="97" x="493"/><text style="font-weight:Normal; font-size: 12px; text-anchor: start; font-family: arial,helvetica; fill: #333333;" y="70" x="514"/><text style="font-weight:Normal; font-size: 12px; text-anchor: middle; font-family: arial,helvetica; fill: #333333;" y="44" x="504"/></g><g transform="matrix(1,0,0,1,0,0)"><path style="fill:none;stroke:#333333;stroke-width:2;stroke-dasharray:4,3;" d="M 659 16C 730 16 736 141 665 141"/><text style="font-weight:Normal; font-size: 12px; text-anchor: middle; font-family: arial,helvetica; fill: #333333;" y="125" x="678"/><text style="font-weight:Normal; font-size: 12px; text-anchor: start; font-family: arial,helvetica; fill: #333333;" y="78" x="715"/><text style="font-weight:Normal; font-size: 12px; text-anchor: middle; font-family: arial,helvetica; fill: #333333;" y="28" x="673"/></g><g><path style="fill:none;stroke:#333333;stroke-width:2;" d="M 80 265C 9 265 11 142 82 142"/><polyline style="fill:#ffffff;stroke:#333333;stroke-width:2;fill-opacity:0;" points="65,153 82,142 63,133"/><text style="font-weight:Normal; font-size: 12px; text-anchor: middle; font-family: arial,helvetica; fill: #333333;" y="157" x="69"/><text style="font-weight:Normal; font-size: 12px; text-anchor: start; font-family: arial,helvetica; fill: #333333;" y="203" x="27"/><text style="font-weight:Normal; font-size: 12px; text-anchor: middle; font-family: arial,helvetica; fill: #333333;" y="251" x="65"/></g><g><path style="fill:none;stroke:#333333;stroke-width:2;" d="M 84 134C 13 134 11 9 82 9"/><polyline style="fill:#ffffff;stroke:#333333;stroke-width:2;fill-opacity:0;" points="65,20 82,9 63,0"/><text style="font-weight:Normal; font-size: 12px; text-anchor: middle; font-family: arial,helvetica; fill: #333333;" y="25" x="69"/><text style="font-weight:Normal; font-size: 12px; text-anchor: start; font-family: arial,helvetica; fill: #333333;" y="71" x="29"/><text style="font-weight:Normal; font-size: 12px; text-anchor: middle; font-family: arial,helvetica; fill: #333333;" y="120" x="69"/></g><g><path style="fill:none;stroke:#333333;stroke-width:2;" d="M 129 9C 287 9 287 137 445 137"/><polyline style="fill:#ffffff;stroke:#333333;stroke-width:2;fill-opacity:0;" points="427,146 445,137 428,126"/><text style="font-weight:Normal; font-size: 12px; text-anchor: middle; font-family: arial,helvetica; fill: #333333;" y="118" x="437"/><text style="font-weight:Normal; font-size: 12px; text-anchor: start; font-family: arial,helvetica; fill: #333333;" y="73" x="287"/><text style="font-weight:Normal; font-size: 12px; text-anchor: middle; font-family: arial,helvetica; fill: #333333;" y="1" x="146"/></g><g transform="matrix(1,0,0,1,0,0)"><path style="fill:none;stroke:#333333;stroke-width:2;" d="M 447 140C 376 140 370 271 441 271"/><polyline style="fill:#ffffff;stroke:#333333;stroke-width:2;fill-opacity:0;" points="422,279 441,271 424,259"/><text style="font-weight:Normal; font-size: 12px; text-anchor: middle; font-family: arial,helvetica; fill: #333333;" y="255" x="457"/><text style="font-weight:Normal; font-size: 12px; text-anchor: start; font-family: arial,helvetica; fill: #333333;" y="205" x="390"/><text style="font-weight:Normal; font-size: 12px; text-anchor: middle; font-family: arial,helvetica; fill: #333333;" y="153" x="461"/></g><g><rect style="fill: #000000;fill-opacity: 0;stroke-opacity:0;stroke-width: 1;stroke:%stroke%;" rx="4" height="34" width="108" y="194" x="-62"/><text style="font-weight:Normal; font-size: 12px; text-anchor: start; font-family: arial,helvetica; fill: #333333;" y="215" x="-62"><tspan x="-62">[ MSG</tspan><tspan>_ID, TO ]</tspan></text></g><g transform="matrix(1,0,0,1,65,0)"><g transform="matrix(1,0,0,1,384,113)"><path style="fill:none;stroke:#333333;stroke-width:3.0;" d="m 0.0259 8.5688l 0.6175 37.8610l 13.5910 8.5493l-0.6179-36.6400"/><path style="fill:none;stroke:#333333;stroke-width:3.0;" d="m 31.5318 0.0195c 0 0-29.6531 5.4958-30.2705 7.3282c-0.6179 1.8320 12.3552 10.9921 12.3552 10.9921l 33.3587-10.3812l-15.4434-7.9390z"/><path style="fill:none;stroke:#333333;stroke-width:3.0;" d="m 46.9752 7.9580l-0.6175 37.8610l-32.1234 9.1602l-0.6780-36.6400"/><path style="fill:none;stroke:#333333;stroke-width:3.0;" d="m 4.9677 22.6137l 4.3244 3.0534"/></g><text style="font-weight:bold; font-size: 12px; text-anchor: middle; font-family: arial,helvetica; fill: #333333;" y="183" x="407">G2</text></g><g><rect style="fill: #000000;fill-opacity: 0;stroke-opacity:0;stroke-width: 1;stroke:%stroke%;" rx="4" height="34" width="127" y="52" x="-84"/><text style="font-weight:Normal; font-size: 12px; text-anchor: start; font-family: arial,helvetica; fill: #333333;" y="73" x="-84"><tspan x="-84">[ MSG</tspan><tspan>_ID, TO, C1 ]</tspan></text></g><g><rect style="fill: #000000;fill-opacity: 0;stroke-opacity:0;stroke-width: 1;stroke:%stroke%;" rx="4" height="34" width="154" y="30" x="202"/><text style="font-weight:Normal; font-size: 12px; text-anchor: start; font-family: arial,helvetica; fill: #000000;" y="51" x="202"><tspan x="202">[ MSG</tspan><tspan>_ID, TO</tspan><tspan>_C2, C1, G1 ]</tspan></text></g><g transform="matrix(1,0,0,1,65,0)"><rect style="fill: #000000;fill-opacity: 0;stroke-opacity:0;stroke-width: 1;stroke:%stroke%;" rx="4" height="34" width="118" y="194" x="269"/><text style="font-weight:Normal; font-size: 12px; text-anchor: start; font-family: arial,helvetica; fill: #333333;" y="215" x="269"><tspan x="269">[ MSG</tspan><tspan>_ID, OUT</tspan><tspan>_ID ]</tspan></text></g><g transform="matrix(1,0,0,1,0,0)"><path style="fill:none;stroke:rgb(229,0,229);stroke-width:2;" d="M 494 271C 565 271 571 140 500 140"/><polyline style="fill:#ffffff;stroke:rgb(229,0,229);stroke-width:2;fill-opacity:0;" points="518,131 500,140 516,151"/><text style="font-weight:Normal; font-size: 12px; text-anchor: middle; font-family: arial,helvetica; fill: #333333;" y="155" x="483"/><text style="font-weight:Normal; font-size: 12px; text-anchor: start; font-family: arial,helvetica; fill: #333333;" y="205" x="550"/><text style="font-weight:Normal; font-size: 12px; text-anchor: middle; font-family: arial,helvetica; fill: #333333;" y="257" x="479"/></g><g transform="matrix(1,0,0,1,65,0)"><g transform="matrix(1,0,0,1,551,114)"><path style="fill:none;stroke:#333333;stroke-width:3.0;" d="m 0.0259 8.5688l 0.6175 37.8610l 13.5910 8.5493l-0.6179-36.6400"/><path style="fill:none;stroke:#333333;stroke-width:3.0;" d="m 31.5318 0.0195c 0 0-29.6531 5.4958-30.2705 7.3282c-0.6179 1.8320 12.3552 10.9921 12.3552 10.9921l 33.3587-10.3812l-15.4434-7.9390z"/><path style="fill:none;stroke:#333333;stroke-width:3.0;" d="m 46.9752 7.9580l-0.6175 37.8610l-32.1234 9.1602l-0.6780-36.6400"/><path style="fill:none;stroke:#333333;stroke-width:3.0;" d="m 4.9677 22.6137l 4.3244 3.0534"/></g><text style="font-weight:bold; font-size: 12px; text-anchor: middle; font-family: arial,helvetica; fill: #333333;" y="184" x="574">G3</text></g><g><path style="fill:none;stroke:rgb(229,0,229);stroke-width:2;" d="M 472 111C 472 31 103-102 103-22"/><polyline style="fill:#ffffff;stroke:rgb(229,0,229);stroke-width:2;fill-opacity:0;" points="97,-41 103,-22 116,-36"/><text style="font-weight:Normal; font-size: 12px; text-anchor: middle; font-family: arial,helvetica; fill: #333333;" y="0" x="113"/><text style="font-weight:Normal; font-size: 12px; text-anchor: start; font-family: arial,helvetica; fill: #333333;" y="-15" x="287"/><text style="font-weight:Normal; font-size: 12px; text-anchor: middle; font-family: arial,helvetica; fill: #333333;" y="121" x="453"/></g><g><rect style="fill: #000000;fill-opacity: 0;stroke-opacity:0;stroke-width: 1;stroke:%stroke%;" rx="4" height="34" width="132" y="-46" x="243"/><text style="font-weight:Normal; font-size: 12px; text-anchor: start; font-family: arial,helvetica; fill: #333333;" y="-25" x="243"><tspan x="243">[ MSG</tspan><tspan>_ID, C1, G1 ]</tspan></text></g><g><path style="fill:none;stroke:rgb(229,0,229);stroke-width:2;" d="M 103 39C 103 86.5 217 86.5 137 134"/><polyline style="fill:#ffffff;stroke:rgb(229,0,229);stroke-width:2;fill-opacity:0;" points="146,116 137,134 156,133"/><text style="font-weight:Normal; font-size: 12px; text-anchor: middle; font-family: arial,helvetica; fill: #333333;" y="114" x="143"/><text style="font-weight:Normal; font-size: 12px; text-anchor: start; font-family: arial,helvetica; fill: #333333;" y="86" x="150"/><text style="font-weight:Normal; font-size: 12px; text-anchor: middle; font-family: arial,helvetica; fill: #333333;" y="47" x="121"/></g><g><path style="fill:none;stroke:rgb(229,0,229);stroke-width:2;" d="M 135 134C 206 134 204 265 133 265"/><polyline style="fill:#ffffff;stroke:rgb(229,0,229);stroke-width:2;fill-opacity:0;" points="149,253 133,265 151,273"/><text style="font-weight:Normal; font-size: 12px; text-anchor: middle; font-family: arial,helvetica; fill: #333333;" y="249" x="145"/><text style="font-weight:Normal; font-size: 12px; text-anchor: start; font-family: arial,helvetica; fill: #333333;" y="199" x="187"/><text style="font-weight:Normal; font-size: 12px; text-anchor: middle; font-family: arial,helvetica; fill: #333333;" y="147" x="149"/></g><g><rect style="fill: #000000;fill-opacity: 0;stroke-opacity:0;stroke-width: 1;stroke:%stroke%;" rx="4" height="34" width="132" y="67" x="159"/><text style="font-weight:Normal; font-size: 12px; text-anchor: start; font-family: arial,helvetica; fill: #333333;" y="88" x="159"><tspan x="159">[ MSG</tspan><tspan>_ID, C1 ]</tspan></text></g><g><rect style="fill: #000000;fill-opacity: 0;stroke-opacity:0;stroke-width: 1;stroke:%stroke%;" rx="4" height="34" width="132" y="164" x="191"/><text style="font-weight:Normal; font-size: 12px; text-anchor: start; font-family: arial,helvetica; fill: #333333;" y="185" x="191"><tspan x="191">[ MSG</tspan><tspan>_ID ]</tspan></text></g><g transform="matrix(1,0,0,1,65,0)"><rect style="fill: #000000;fill-opacity: 0;stroke-opacity:0;stroke-width: 1;stroke:%stroke%;" rx="4" height="34" width="118" y="194" x="491"/><text style="font-weight:Normal; font-size: 12px; text-anchor: start; font-family: arial,helvetica; fill: #333333;" y="215" x="491"><tspan x="491">[ OUT</tspan><tspan>_ID ]</tspan></text></g><g transform="matrix(1,0,0,1,65,0)"><rect style="fill: #000000;fill-opacity: 0;stroke-opacity:0;stroke-width: 1;stroke:%stroke%;" rx="4" height="34" width="154" y="81" x="439"/><text style="font-weight:Normal; font-size: 12px; text-anchor: start; font-family: arial,helvetica; fill: #000000;" y="102" x="439"><tspan x="439">[ MSG</tspan><tspan>_ID, C1, G1, R1 ]</tspan></text></g><g transform="matrix(1,0,0,1,0,0)"><path style="fill:none;stroke:rgb(0,229,0);stroke-width:2;stroke-dasharray:4,3;" d="M 587 190C 587 154.5 581 154.5 581 119"/><polyline style="fill:#ffffff;stroke:rgb(0,229,0);stroke-width:2;fill-opacity:0;" points="591,136 581,119 571,136"/><text style="font-weight:Normal; font-size: 12px; text-anchor: middle; font-family: arial,helvetica; fill: #333333;" y="133" x="568"/><text style="font-weight:Normal; font-size: 12px; text-anchor: start; font-family: arial,helvetica; fill: #333333;" y="154" x="584"/><text style="font-weight:Normal; font-size: 12px; text-anchor: middle; font-family: arial,helvetica; fill: #333333;" y="180" x="571"/><polyline style="fill:#ffffff;stroke:rgb(0,229,0);stroke-width:2;fill-opacity:0;" points="596,172 587,190 576,172"/></g><g transform="matrix(1,0,0,1,-3,-51)"><g transform="matrix(1,0,0,1,201,289)"><path style="fill:none;stroke:#333333;stroke-width:3.0;" d="m 0.0259 8.5688l 0.6175 37.8610l 13.5910 8.5493l-0.6179-36.6400"/><path style="fill:none;stroke:#333333;stroke-width:3.0;" d="m 31.5318 0.0195c 0 0-29.6531 5.4958-30.2705 7.3282c-0.6179 1.8320 12.3552 10.9921 12.3552 10.9921l 33.3587-10.3812l-15.4434-7.9390z"/><path style="fill:none;stroke:#333333;stroke-width:3.0;" d="m 46.9752 7.9580l-0.6175 37.8610l-32.1234 9.1602l-0.6780-36.6400"/><path style="fill:none;stroke:#333333;stroke-width:3.0;" d="m 4.9677 22.6137l 4.3244 3.0534"/></g><text style="font-weight:bold; font-size: 12px; text-anchor: middle; font-family: arial,helvetica; fill: #333333;" y="359" x="224">C1'</text></g><g><path style="fill:none;stroke:#333333;stroke-width:2;stroke-dasharray:4,3;" d="M 221 236C 221 200 118 200 118 164"/><text style="font-weight:Normal; font-size: 12px; text-anchor: middle; font-family: arial,helvetica; fill: #333333;" y="185" x="123"/><text style="font-weight:Normal; font-size: 12px; text-anchor: start; font-family: arial,helvetica; fill: #333333;" y="200" x="169"/><text style="font-weight:Normal; font-size: 12px; text-anchor: middle; font-family: arial,helvetica; fill: #333333;" y="240" x="201"/></g><g transform="matrix(1,0,0,1,5,0)"><g transform="matrix(1,0,0,1,264,238)"><path style="fill:none;stroke:#333333;stroke-width:3.0;" d="m 0.0259 8.5688l 0.6175 37.8610l 13.5910 8.5493l-0.6179-36.6400"/><path style="fill:none;stroke:#333333;stroke-width:3.0;" d="m 31.5318 0.0195c 0 0-29.6531 5.4958-30.2705 7.3282c-0.6179 1.8320 12.3552 10.9921 12.3552 10.9921l 33.3587-10.3812l-15.4434-7.9390z"/><path style="fill:none;stroke:#333333;stroke-width:3.0;" d="m 46.9752 7.9580l-0.6175 37.8610l-32.1234 9.1602l-0.6780-36.6400"/><path style="fill:none;stroke:#333333;stroke-width:3.0;" d="m 4.9677 22.6137l 4.3244 3.0534"/></g><text style="font-weight:bold; font-size: 12px; text-anchor: middle; font-family: arial,helvetica; fill: #333333;" y="308" x="287">C1''</text></g><g transform="matrix(1,0,0,1,0,0)"><path style="fill:none;stroke:#333333;stroke-width:2;stroke-dasharray:4,3;" d="M 292 236C 292 188.5 369.5 141 447 141"/><text style="font-weight:Normal; font-size: 12px; text-anchor: middle; font-family: arial,helvetica; fill: #333333;" y="137" x="426"/><text style="font-weight:Normal; font-size: 12px; text-anchor: start; font-family: arial,helvetica; fill: #333333;" y="170" x="340"/><text style="font-weight:Normal; font-size: 12px; text-anchor: middle; font-family: arial,helvetica; fill: #333333;" y="216" x="295"/></g><g transform="matrix(1,0,0,1,-165,-18)"><rect style="fill: #000000;fill-opacity: 0;stroke-opacity:0;stroke-width: 1;stroke:%stroke%;" rx="4" height="34" width="118" y="333" x="309"/><text style="font-weight:Normal; font-size: 12px; text-anchor: start; font-family: arial,helvetica; fill: #333333;" y="354" x="309"><tspan x="309">connections of C</tspan></text></g></svg>