<svg height="447" width="982" viewBox="187 67 982 447" style="background-color:transparent;" preserveAspectRatio="xMinYMin meet" xmlns:xlink="http://www.w3.org/1999/xlink" xmlns="http://www.w3.org/2000/svg"><g transform="matrix(1,0,0,1,-633,-322)"><g transform="matrix(1,0,0,1,1391,461)"><path style="fill:none;stroke:rgb(153,0,0);stroke-width:3.0;" d="m 6.1354 0.4465l 389.4495 8.9303l-8.7459 322.1346l-386.3627-1.2751z"/></g></g><g transform="matrix(1,0,0,1,-894,-364)"><g transform="matrix(1,0,0,1,1135,496)"><path style="fill:none;stroke:rgb(153,0,0);stroke-width:3.0;" d="m 6.2129 0.4935l 394.3668 9.8717l-8.8563 356.0946l-391.2410-1.4095z"/></g></g><g transform="matrix(1,0,0,1,-774,13)"><g transform="matrix(1,0,0,1,1090,246)"><path style="fill:none;stroke:#333333;stroke-width:3.0;" d="m 0.0347 11.3731l 0.8277 50.2519l 18.2177 11.3473l-0.8282-48.6313"/><path style="fill:none;stroke:#333333;stroke-width:3.0;" d="m 42.2660 0.0258c 0 0-39.7477 7.2944-40.5754 9.7265c-0.8282 2.4316 16.5612 14.5895 16.5612 14.5895l 44.7149-13.7787l-20.7007-10.5372z"/><path style="fill:none;stroke:#333333;stroke-width:3.0;" d="m 62.9667 10.5624l-0.8277 50.2519l-43.0590 12.1581l-0.9088-48.6313"/><path style="fill:none;stroke:#333333;stroke-width:3.0;" d="m 6.6588 30.0146l 5.7965 4.0526"/></g><text style="font-weight:bold; font-size: 12px; text-anchor: middle; font-family: arial,helvetica; fill: #333333;" y="334" x="1121">N1</text></g><g><path style="fill:none;stroke:#333333;stroke-width:2;" d="M 314 307C 202 307 343 417 455 417"/><polyline style="fill:#ffffff;stroke:#333333;stroke-width:2;fill-opacity:0;" points="437,426 455,417 438,406"/><text style="font-weight:Normal; font-size: 12px; text-anchor: middle; font-family: arial,helvetica; fill: #333333;" y="396" x="453"/><text style="font-weight:Normal; font-size: 12px; text-anchor: start; font-family: arial,helvetica; fill: #333333;" y="362" x="300"/><text style="font-weight:Normal; font-size: 12px; text-anchor: middle; font-family: arial,helvetica; fill: #333333;" y="303" x="334"/></g><g><path style="fill:none;stroke:#333333;stroke-width:2;" d="M 506 379C 506 299 870 268 870 348"/><polyline style="fill:#ffffff;stroke:#333333;stroke-width:2;fill-opacity:0;" points="856,333 870,348 875,328"/><text style="font-weight:Normal; font-size: 12px; text-anchor: middle; font-family: arial,helvetica; fill: #333333;" y="337" x="853"/><text style="font-weight:Normal; font-size: 12px; text-anchor: start; font-family: arial,helvetica; fill: #333333;" y="303" x="688"/><text style="font-weight:Normal; font-size: 12px; text-anchor: middle; font-family: arial,helvetica; fill: #333333;" y="363" x="517"/></g><g transform="matrix(1,0,0,1,0,0)"><path style="fill:none;stroke:#333333;stroke-width:2;" d="M 1069 189C 1069 112 987.5 213 906 213"/><polyline style="fill:#ffffff;stroke:#333333;stroke-width:2;fill-opacity:0;" points="922,201 906,213 923,221"/><text style="font-weight:Normal; font-size: 12px; text-anchor: middle; font-family: arial,helvetica; fill: #333333;" y="224" x="921"/><text style="font-weight:Normal; font-size: 12px; text-anchor: start; font-family: arial,helvetica; fill: #333333;" y="172" x="1018"/><text style="font-weight:Normal; font-size: 12px; text-anchor: middle; font-family: arial,helvetica; fill: #333333;" y="205" x="1058"/></g><g><path style="fill:none;stroke:#333333;stroke-width:2;" d="M 837 219C 690.5 219 690.5 201 544 201"/><polyline style="fill:#ffffff;stroke:#333333;stroke-width:2;fill-opacity:0;" points="561,191 544,201 561,211"/><text style="font-weight:Normal; font-size: 12px; text-anchor: middle; font-family: arial,helvetica; fill: #333333;" y="215" x="557"/><text style="font-weight:Normal; font-size: 12px; text-anchor: start; font-family: arial,helvetica; fill: #333333;" y="210" x="690"/><text style="font-weight:Normal; font-size: 12px; text-anchor: middle; font-family: arial,helvetica; fill: #333333;" y="233" x="823"/></g><g><path style="fill:none;stroke:rgb(229,0,229);stroke-width:2;" d="M 848 396C 687 396 687 417 526 417"/><polyline style="fill:#ffffff;stroke:rgb(229,0,229);stroke-width:2;fill-opacity:0;" points="543,406 526,417 543,426"/><text style="font-weight:Normal; font-size: 12px; text-anchor: middle; font-family: arial,helvetica; fill: #333333;" y="429" x="539"/><text style="font-weight:Normal; font-size: 12px; text-anchor: start; font-family: arial,helvetica; fill: #333333;" y="406" x="687"/><text style="font-weight:Normal; font-size: 12px; text-anchor: middle; font-family: arial,helvetica; fill: #333333;" y="410" x="835"/></g><g><path style="fill:none;stroke:rgb(229,0,229);stroke-width:2;" d="M 508 157C 508 77 870 99 870 179"/><polyline style="fill:#ffffff;stroke:rgb(229,0,229);stroke-width:2;fill-opacity:0;" points="856,164 870,179 875,159"/><text style="font-weight:Normal; font-size: 12px; text-anchor: middle; font-family: arial,helvetica; fill: #333333;" y="165" x="854"/><text style="font-weight:Normal; font-size: 12px; text-anchor: start; font-family: arial,helvetica; fill: #333333;" y="108" x="689"/><text style="font-weight:Normal; font-size: 12px; text-anchor: middle; font-family: arial,helvetica; fill: #333333;" y="142" x="521"/></g><g transform="matrix(1,0,0,1,0,0)"><path style="fill:none;stroke:rgb(229,0,229);stroke-width:2;" d="M 887 258C 887 338 969 227 1051 227"/><polyline style="fill:#ffffff;stroke:rgb(229,0,229);stroke-width:2;fill-opacity:0;" points="1034,238 1051,227 1033,218"/><text style="font-weight:Normal; font-size: 12px; text-anchor: middle; font-family: arial,helvetica; fill: #333333;" y="215" x="1035"/><text style="font-weight:Normal; font-size: 12px; text-anchor: start; font-family: arial,helvetica; fill: #333333;" y="272" x="938"/><text style="font-weight:Normal; font-size: 12px; text-anchor: middle; font-family: arial,helvetica; fill: #333333;" y="241" x="897"/></g><g transform="matrix(1,0,0,1,-654,158)"><g transform="matrix(1,0,0,1,1012,1)"><path style="fill:none;stroke:#333333;stroke-width:3.0;" d="m 0.0347 11.3731l 0.8277 50.2519l 18.2177 11.3473l-0.8282-48.6313"/><path style="fill:none;stroke:#333333;stroke-width:3.0;" d="m 42.2660 0.0258c 0 0-39.7477 7.2944-40.5754 9.7265c-0.8282 2.4316 16.5612 14.5895 16.5612 14.5895l 44.7149-13.7787l-20.7007-10.5372z"/><path style="fill:none;stroke:#333333;stroke-width:3.0;" d="m 62.9667 10.5624l-0.8277 50.2519l-43.0590 12.1581l-0.9088-48.6313"/><path style="fill:none;stroke:#333333;stroke-width:3.0;" d="m 6.6588 30.0146l 5.7965 4.0526"/></g><text style="font-weight:bold; font-size: 12px; text-anchor: middle; font-family: arial,helvetica; fill: #333333;" y="89" x="1043">N2</text></g><g><path style="fill:none;stroke:rgb(229,0,229);stroke-width:2;" d="M 490 379C 490 337 436.5 295 383 295"/><polyline style="fill:#ffffff;stroke:rgb(229,0,229);stroke-width:2;fill-opacity:0;" points="400,285 383,295 399,305"/><text style="font-weight:Normal; font-size: 12px; text-anchor: middle; font-family: arial,helvetica; fill: #333333;" y="315" x="384"/><text style="font-weight:Normal; font-size: 12px; text-anchor: start; font-family: arial,helvetica; fill: #333333;" y="321" x="456"/><text style="font-weight:Normal; font-size: 12px; text-anchor: middle; font-family: arial,helvetica; fill: #333333;" y="382" x="469"/></g><g transform="matrix(1,0,0,1,-75,-88)"><g transform="matrix(1,0,0,1,552,247)"><path style="fill:none;stroke:#333333;stroke-width:3.0;" d="m 0.0347 11.3731l 0.8277 50.2519l 18.2177 11.3473l-0.8282-48.6313"/><path style="fill:none;stroke:#333333;stroke-width:3.0;" d="m 42.2660 0.0258c 0 0-39.7477 7.2944-40.5754 9.7265c-0.8282 2.4316 16.5612 14.5895 16.5612 14.5895l 44.7149-13.7787l-20.7007-10.5372z"/><path style="fill:none;stroke:#333333;stroke-width:3.0;" d="m 62.9667 10.5624l-0.8277 50.2519l-43.0590 12.1581l-0.9088-48.6313"/><path style="fill:none;stroke:#333333;stroke-width:3.0;" d="m 6.6588 30.0146l 5.7965 4.0526"/></g><text style="font-weight:bold; font-size: 12px; text-anchor: middle; font-family: arial,helvetica; fill: #333333;" y="335" x="583">N3</text></g><g transform="matrix(1,0,0,1,-108,28)"><g transform="matrix(1,0,0,1,567,353)"><path style="fill:none;stroke:#333333;stroke-width:3.0;" d="m 0.0347 11.3731l 0.8277 50.2519l 18.2177 11.3473l-0.8282-48.6313"/><path style="fill:none;stroke:#333333;stroke-width:3.0;" d="m 42.2660 0.0258c 0 0-39.7477 7.2944-40.5754 9.7265c-0.8282 2.4316 16.5612 14.5895 16.5612 14.5895l 44.7149-13.7787l-20.7007-10.5372z"/><path style="fill:none;stroke:#333333;stroke-width:3.0;" d="m 62.9667 10.5624l-0.8277 50.2519l-43.0590 12.1581l-0.9088-48.6313"/><path style="fill:none;stroke:#333333;stroke-width:3.0;" d="m 6.6588 30.0146l 5.7965 4.0526"/></g><text style="font-weight:bold; font-size: 12px; text-anchor: middle; font-family: arial,helvetica; fill: #333333;" y="441" x="598">R1</text></g><g transform="matrix(1,0,0,1,239,-129)"><g transform="matrix(1,0,0,1,611,481)"><path style="fill:none;stroke:#333333;stroke-width:3.0;" d="m 0.0347 11.3731l 0.8277 50.2519l 18.2177 11.3473l-0.8282-48.6313"/><path style="fill:none;stroke:#333333;stroke-width:3.0;" d="m 42.2660 0.0258c 0 0-39.7477 7.2944-40.5754 9.7265c-0.8282 2.4316 16.5612 14.5895 16.5612 14.5895l 44.7149-13.7787l-20.7007-10.5372z"/><path style="fill:none;stroke:#333333;stroke-width:3.0;" d="m 62.9667 10.5624l-0.8277 50.2519l-43.0590 12.1581l-0.9088-48.6313"/><path style="fill:none;stroke:#333333;stroke-width:3.0;" d="m 6.6588 30.0146l 5.7965 4.0526"/></g><text style="font-weight:bold; font-size: 12px; text-anchor: middle; font-family: arial,helvetica; fill: #333333;" y="569" x="642">N4</text></g><g transform="matrix(1,0,0,1,223,-187)"><g transform="matrix(1,0,0,1,736,479)"><path style="fill:none;stroke:#333333;stroke-width:3.0;" d="m 0.0347 11.3731l 0.8277 50.2519l 18.2177 11.3473l-0.8282-48.6313"/><path style="fill:none;stroke:#333333;stroke-width:3.0;" d="m 42.2660 0.0258c 0 0-39.7477 7.2944-40.5754 9.7265c-0.8282 2.4316 16.5612 14.5895 16.5612 14.5895l 44.7149-13.7787l-20.7007-10.5372z"/><path style="fill:none;stroke:#333333;stroke-width:3.0;" d="m 62.9667 10.5624l-0.8277 50.2519l-43.0590 12.1581l-0.9088-48.6313"/><path style="fill:none;stroke:#333333;stroke-width:3.0;" d="m 6.6588 30.0146l 5.7965 4.0526"/></g><text style="font-weight:bold; font-size: 12px; text-anchor: middle; font-family: arial,helvetica; fill: #333333;" y="567" x="767">N5</text></g><g transform="matrix(1,0,0,1,200,-288)"><g transform="matrix(1,0,0,1,855,479)"><path style="fill:none;stroke:#333333;stroke-width:3.0;" d="m 0.0347 11.3731l 0.8277 50.2519l 18.2177 11.3473l-0.8282-48.6313"/><path style="fill:none;stroke:#333333;stroke-width:3.0;" d="m 42.2660 0.0258c 0 0-39.7477 7.2944-40.5754 9.7265c-0.8282 2.4316 16.5612 14.5895 16.5612 14.5895l 44.7149-13.7787l-20.7007-10.5372z"/><path style="fill:none;stroke:#333333;stroke-width:3.0;" d="m 62.9667 10.5624l-0.8277 50.2519l-43.0590 12.1581l-0.9088-48.6313"/><path style="fill:none;stroke:#333333;stroke-width:3.0;" d="m 6.6588 30.0146l 5.7965 4.0526"/></g><text style="font-weight:bold; font-size: 12px; text-anchor: middle; font-family: arial,helvetica; fill: #333333;" y="567" x="886">N6</text></g><g transform="matrix(1,0,0,1,103,-475)"><g transform="matrix(1,0,0,1,736,658)"><path style="fill:none;stroke:#333333;stroke-width:3.0;" d="m 0.0347 11.3731l 0.8277 50.2519l 18.2177 11.3473l-0.8282-48.6313"/><path style="fill:none;stroke:#333333;stroke-width:3.0;" d="m 42.2660 0.0258c 0 0-39.7477 7.2944-40.5754 9.7265c-0.8282 2.4316 16.5612 14.5895 16.5612 14.5895l 44.7149-13.7787l-20.7007-10.5372z"/><path style="fill:none;stroke:#333333;stroke-width:3.0;" d="m 62.9667 10.5624l-0.8277 50.2519l-43.0590 12.1581l-0.9088-48.6313"/><path style="fill:none;stroke:#333333;stroke-width:3.0;" d="m 6.6588 30.0146l 5.7965 4.0526"/></g><text style="font-weight:bold; font-size: 12px; text-anchor: middle; font-family: arial,helvetica; fill: #333333;" y="746" x="767">R2</text></g><g><path style="fill:none;stroke:rgb(44,44,178);stroke-width:3;stroke-dasharray:4,3;" d="M 490 376C 490 297.5 662 219 834 219"/><polyline style="fill:#ffffff;stroke:rgb(44,44,178);stroke-width:3;fill-opacity:0;" points="813,231 834,219 812,207"/><text style="font-weight:Normal; font-size: 12px; text-anchor: middle; font-family: arial,helvetica; fill: #333333;" y="212" x="816"/><text style="font-weight:Normal; font-size: 12px; text-anchor: start; font-family: arial,helvetica; fill: #333333;" y="268" x="597"/><text style="font-weight:Normal; font-size: 12px; text-anchor: middle; font-family: arial,helvetica; fill: #333333;" y="360" x="495"/><polyline style="fill:#ffffff;stroke:rgb(44,44,178);stroke-width:3;fill-opacity:0;" points="506,358 490,376 482,353"/></g><g transform="matrix(1,0,0,1,-723,-217)"><rect style="fill: #000000;fill-opacity: 0;stroke-opacity:0;stroke-width: 1;stroke:%stroke%;" rx="4" height="37" width="100" y="457" x="1378"/><text style="font-weight:Normal; font-size: 12px; text-anchor: start; font-family: arial,helvetica; fill: #ff0000;" y="478" x="1378"><tspan x="1378">sync routes</tspan></text></g></svg>